<mxfile host="app.diagrams.net" agent="Mozilla/5.0 (Windows NT 10.0; Win64; x64) AppleWebKit/537.36 (KHTML, like Gecko) Chrome/135.0.0.0 Safari/537.36" version="27.0.1">
  <diagram name="Booking System - Use Case Diagram" id="_gso0sGbffyeS4cYmKM7">
    <mxGraphModel dx="649" dy="454" grid="1" gridSize="10" guides="1" tooltips="1" connect="1" arrows="1" fold="1" page="1" pageScale="1" pageWidth="850" pageHeight="1100" math="0" shadow="0">
      <root>
        <mxCell id="0" />
        <mxCell id="1" parent="0" />
        <mxCell id="sY2ITFtQxJmRzgY58jd_-1" value="Customer" style="umlActor;verticalLabelPosition=bottom;verticalAlign=top;strokeWidth=2;" vertex="1" parent="1">
          <mxGeometry x="70" y="140" width="40" height="60" as="geometry" />
        </mxCell>
        <mxCell id="sY2ITFtQxJmRzgY58jd_-2" value="Admin" style="umlActor;verticalLabelPosition=bottom;verticalAlign=top;strokeWidth=2;" vertex="1" parent="1">
          <mxGeometry x="550" y="140" width="40" height="60" as="geometry" />
        </mxCell>
        <mxCell id="sY2ITFtQxJmRzgY58jd_-3" value="Payment Gateway" style="shape=rectangle;whiteSpace=wrap;strokeWidth=2;" vertex="1" parent="1">
          <mxGeometry x="250" y="440" width="120" height="60" as="geometry" />
        </mxCell>
        <mxCell id="sY2ITFtQxJmRzgY58jd_-4" value="Notification Service" style="shape=rectangle;whiteSpace=wrap;strokeWidth=2;" vertex="1" parent="1">
          <mxGeometry x="450" y="440" width="120" height="60" as="geometry" />
        </mxCell>
        <mxCell id="sY2ITFtQxJmRzgY58jd_-5" value="Browse Services" style="ellipse;whiteSpace=wrap;strokeWidth=2;" vertex="1" parent="1">
          <mxGeometry x="170" y="40" width="120" height="60" as="geometry" />
        </mxCell>
        <mxCell id="sY2ITFtQxJmRzgY58jd_-6" value="Search Availability" style="ellipse;whiteSpace=wrap;strokeWidth=2;" vertex="1" parent="1">
          <mxGeometry x="170" y="120" width="120" height="60" as="geometry" />
        </mxCell>
        <mxCell id="sY2ITFtQxJmRzgY58jd_-7" value="Make Booking" style="ellipse;whiteSpace=wrap;strokeWidth=2;" vertex="1" parent="1">
          <mxGeometry x="170" y="200" width="120" height="60" as="geometry" />
        </mxCell>
        <mxCell id="sY2ITFtQxJmRzgY58jd_-8" value="Cancel Booking" style="ellipse;whiteSpace=wrap;strokeWidth=2;" vertex="1" parent="1">
          <mxGeometry x="170" y="280" width="120" height="60" as="geometry" />
        </mxCell>
        <mxCell id="sY2ITFtQxJmRzgY58jd_-9" value="Make Payment" style="ellipse;whiteSpace=wrap;strokeWidth=2;" vertex="1" parent="1">
          <mxGeometry x="170" y="360" width="120" height="60" as="geometry" />
        </mxCell>
        <mxCell id="sY2ITFtQxJmRzgY58jd_-10" value="View Booking History" style="ellipse;whiteSpace=wrap;strokeWidth=2;" vertex="1" parent="1">
          <mxGeometry x="170" y="440" width="120" height="60" as="geometry" />
        </mxCell>
        <mxCell id="sY2ITFtQxJmRzgY58jd_-11" value="Manage Bookings" style="ellipse;whiteSpace=wrap;strokeWidth=2;" vertex="1" parent="1">
          <mxGeometry x="450" y="40" width="120" height="60" as="geometry" />
        </mxCell>
        <mxCell id="sY2ITFtQxJmRzgY58jd_-12" value="Manage Services" style="ellipse;whiteSpace=wrap;strokeWidth=2;" vertex="1" parent="1">
          <mxGeometry x="450" y="120" width="120" height="60" as="geometry" />
        </mxCell>
        <mxCell id="sY2ITFtQxJmRzgY58jd_-13" value="Generate Reports" style="ellipse;whiteSpace=wrap;strokeWidth=2;" vertex="1" parent="1">
          <mxGeometry x="450" y="200" width="120" height="60" as="geometry" />
        </mxCell>
        <mxCell id="sY2ITFtQxJmRzgY58jd_-14" value="Manage Users" style="ellipse;whiteSpace=wrap;strokeWidth=2;" vertex="1" parent="1">
          <mxGeometry x="450" y="280" width="120" height="60" as="geometry" />
        </mxCell>
        <mxCell id="sY2ITFtQxJmRzgY58jd_-15" value="Process Payment" style="ellipse;whiteSpace=wrap;strokeWidth=2;" vertex="1" parent="1">
          <mxGeometry x="250" y="340" width="120" height="60" as="geometry" />
        </mxCell>
        <mxCell id="sY2ITFtQxJmRzgY58jd_-16" value="Refund Payment" style="ellipse;whiteSpace=wrap;strokeWidth=2;" vertex="1" parent="1">
          <mxGeometry x="250" y="540" width="120" height="60" as="geometry" />
        </mxCell>
        <mxCell id="sY2ITFtQxJmRzgY58jd_-17" value="Send Booking Confirmation" style="ellipse;whiteSpace=wrap;strokeWidth=2;" vertex="1" parent="1">
          <mxGeometry x="450" y="340" width="150" height="60" as="geometry" />
        </mxCell>
        <mxCell id="sY2ITFtQxJmRzgY58jd_-18" value="Send Cancellation Notification" style="ellipse;whiteSpace=wrap;strokeWidth=2;" vertex="1" parent="1">
          <mxGeometry x="450" y="540" width="150" height="60" as="geometry" />
        </mxCell>
        <mxCell id="sY2ITFtQxJmRzgY58jd_-19" value="" style="endArrow=none;html=1;strokeWidth=2;" edge="1" parent="1" source="sY2ITFtQxJmRzgY58jd_-1" target="sY2ITFtQxJmRzgY58jd_-5">
          <mxGeometry width="50" height="50" relative="1" as="geometry">
            <mxPoint x="170" y="70" as="sourcePoint" />
            <mxPoint x="220" y="20" as="targetPoint" />
          </mxGeometry>
        </mxCell>
        <mxCell id="sY2ITFtQxJmRzgY58jd_-20" value="" style="endArrow=none;html=1;strokeWidth=2;" edge="1" parent="1" source="sY2ITFtQxJmRzgY58jd_-1" target="sY2ITFtQxJmRzgY58jd_-6">
          <mxGeometry width="50" height="50" relative="1" as="geometry">
            <mxPoint x="170" y="150" as="sourcePoint" />
            <mxPoint x="220" y="100" as="targetPoint" />
          </mxGeometry>
        </mxCell>
        <mxCell id="sY2ITFtQxJmRzgY58jd_-21" value="" style="endArrow=none;html=1;strokeWidth=2;" edge="1" parent="1" source="sY2ITFtQxJmRzgY58jd_-1" target="sY2ITFtQxJmRzgY58jd_-7">
          <mxGeometry width="50" height="50" relative="1" as="geometry">
            <mxPoint x="170" y="230" as="sourcePoint" />
            <mxPoint x="220" y="180" as="targetPoint" />
          </mxGeometry>
        </mxCell>
        <mxCell id="sY2ITFtQxJmRzgY58jd_-22" value="" style="endArrow=none;html=1;strokeWidth=2;" edge="1" parent="1" source="sY2ITFtQxJmRzgY58jd_-1" target="sY2ITFtQxJmRzgY58jd_-8">
          <mxGeometry width="50" height="50" relative="1" as="geometry">
            <mxPoint x="170" y="310" as="sourcePoint" />
            <mxPoint x="220" y="260" as="targetPoint" />
          </mxGeometry>
        </mxCell>
        <mxCell id="sY2ITFtQxJmRzgY58jd_-23" value="" style="endArrow=none;html=1;strokeWidth=2;" edge="1" parent="1" source="sY2ITFtQxJmRzgY58jd_-1" target="sY2ITFtQxJmRzgY58jd_-9">
          <mxGeometry width="50" height="50" relative="1" as="geometry">
            <mxPoint x="170" y="390" as="sourcePoint" />
            <mxPoint x="220" y="340" as="targetPoint" />
          </mxGeometry>
        </mxCell>
        <mxCell id="sY2ITFtQxJmRzgY58jd_-24" value="" style="endArrow=none;html=1;strokeWidth=2;" edge="1" parent="1" source="sY2ITFtQxJmRzgY58jd_-1" target="sY2ITFtQxJmRzgY58jd_-10">
          <mxGeometry width="50" height="50" relative="1" as="geometry">
            <mxPoint x="170" y="470" as="sourcePoint" />
            <mxPoint x="220" y="420" as="targetPoint" />
          </mxGeometry>
        </mxCell>
        <mxCell id="sY2ITFtQxJmRzgY58jd_-25" value="" style="endArrow=none;html=1;strokeWidth=2;" edge="1" parent="1" source="sY2ITFtQxJmRzgY58jd_-2" target="sY2ITFtQxJmRzgY58jd_-11">
          <mxGeometry width="50" height="50" relative="1" as="geometry">
            <mxPoint x="550" y="70" as="sourcePoint" />
            <mxPoint x="500" y="20" as="targetPoint" />
          </mxGeometry>
        </mxCell>
        <mxCell id="sY2ITFtQxJmRzgY58jd_-26" value="" style="endArrow=none;html=1;strokeWidth=2;" edge="1" parent="1" source="sY2ITFtQxJmRzgY58jd_-2" target="sY2ITFtQxJmRzgY58jd_-12">
          <mxGeometry width="50" height="50" relative="1" as="geometry">
            <mxPoint x="550" y="150" as="sourcePoint" />
            <mxPoint x="500" y="100" as="targetPoint" />
          </mxGeometry>
        </mxCell>
        <mxCell id="sY2ITFtQxJmRzgY58jd_-27" value="" style="endArrow=none;html=1;strokeWidth=2;" edge="1" parent="1" source="sY2ITFtQxJmRzgY58jd_-2" target="sY2ITFtQxJmRzgY58jd_-13">
          <mxGeometry width="50" height="50" relative="1" as="geometry">
            <mxPoint x="550" y="230" as="sourcePoint" />
            <mxPoint x="500" y="180" as="targetPoint" />
          </mxGeometry>
        </mxCell>
        <mxCell id="sY2ITFtQxJmRzgY58jd_-28" value="" style="endArrow=none;html=1;strokeWidth=2;" edge="1" parent="1" source="sY2ITFtQxJmRzgY58jd_-2" target="sY2ITFtQxJmRzgY58jd_-14">
          <mxGeometry width="50" height="50" relative="1" as="geometry">
            <mxPoint x="550" y="310" as="sourcePoint" />
            <mxPoint x="500" y="260" as="targetPoint" />
          </mxGeometry>
        </mxCell>
        <mxCell id="sY2ITFtQxJmRzgY58jd_-29" value="" style="endArrow=none;html=1;strokeWidth=2;" edge="1" parent="1" source="sY2ITFtQxJmRzgY58jd_-3" target="sY2ITFtQxJmRzgY58jd_-15">
          <mxGeometry width="50" height="50" relative="1" as="geometry">
            <mxPoint x="310" y="440" as="sourcePoint" />
            <mxPoint x="310" y="400" as="targetPoint" />
          </mxGeometry>
        </mxCell>
        <mxCell id="sY2ITFtQxJmRzgY58jd_-30" value="" style="endArrow=none;html=1;strokeWidth=2;" edge="1" parent="1" source="sY2ITFtQxJmRzgY58jd_-3" target="sY2ITFtQxJmRzgY58jd_-16">
          <mxGeometry width="50" height="50" relative="1" as="geometry">
            <mxPoint x="310" y="500" as="sourcePoint" />
            <mxPoint x="310" y="540" as="targetPoint" />
          </mxGeometry>
        </mxCell>
        <mxCell id="sY2ITFtQxJmRzgY58jd_-31" value="" style="endArrow=none;html=1;strokeWidth=2;" edge="1" parent="1" source="sY2ITFtQxJmRzgY58jd_-4" target="sY2ITFtQxJmRzgY58jd_-17">
          <mxGeometry width="50" height="50" relative="1" as="geometry">
            <mxPoint x="510" y="440" as="sourcePoint" />
            <mxPoint x="510" y="400" as="targetPoint" />
          </mxGeometry>
        </mxCell>
        <mxCell id="sY2ITFtQxJmRzgY58jd_-32" value="" style="endArrow=none;html=1;strokeWidth=2;" edge="1" parent="1" source="sY2ITFtQxJmRzgY58jd_-4" target="sY2ITFtQxJmRzgY58jd_-18">
          <mxGeometry width="50" height="50" relative="1" as="geometry">
            <mxPoint x="510" y="500" as="sourcePoint" />
            <mxPoint x="510" y="540" as="targetPoint" />
          </mxGeometry>
        </mxCell>
        <mxCell id="sY2ITFtQxJmRzgY58jd_-33" value="&lt;&lt;include&gt;&gt;" style="endArrow=open;dashed=1;html=1;strokeWidth=2;" edge="1" parent="1" source="sY2ITFtQxJmRzgY58jd_-9" target="sY2ITFtQxJmRzgY58jd_-15">
          <mxGeometry width="50" height="50" relative="1" as="geometry">
            <mxPoint x="230" y="390" as="sourcePoint" />
            <mxPoint x="280" y="340" as="targetPoint" />
          </mxGeometry>
        </mxCell>
        <mxCell id="sY2ITFtQxJmRzgY58jd_-34" value="&lt;&lt;extend&gt;&gt;" style="endArrow=open;dashed=1;html=1;strokeWidth=2;" edge="1" parent="1" source="sY2ITFtQxJmRzgY58jd_-8" target="sY2ITFtQxJmRzgY58jd_-16">
          <mxGeometry width="50" height="50" relative="1" as="geometry">
            <mxPoint x="230" y="310" as="sourcePoint" />
            <mxPoint x="280" y="540" as="targetPoint" />
          </mxGeometry>
        </mxCell>
        <mxCell id="sY2ITFtQxJmRzgY58jd_-35" value="&lt;&lt;extend&gt;&gt;" style="endArrow=open;dashed=1;html=1;strokeWidth=2;" edge="1" parent="1" source="sY2ITFtQxJmRzgY58jd_-7" target="sY2ITFtQxJmRzgY58jd_-17">
          <mxGeometry width="50" height="50" relative="1" as="geometry">
            <mxPoint x="290" y="230" as="sourcePoint" />
            <mxPoint x="450" y="340" as="targetPoint" />
          </mxGeometry>
        </mxCell>
        <mxCell id="sY2ITFtQxJmRzgY58jd_-36" value="&lt;&lt;extend&gt;&gt;" style="endArrow=open;dashed=1;html=1;strokeWidth=2;" edge="1" parent="1" source="sY2ITFtQxJmRzgY58jd_-8" target="sY2ITFtQxJmRzgY58jd_-18">
          <mxGeometry width="50" height="50" relative="1" as="geometry">
            <mxPoint x="290" y="310" as="sourcePoint" />
            <mxPoint x="450" y="540" as="targetPoint" />
          </mxGeometry>
        </mxCell>
      </root>
    </mxGraphModel>
  </diagram>
</mxfile>
